<svg width="20" height="20" viewBox="0 0 20 20" fill="none" xmlns="http://www.w3.org/2000/svg">
<path d="M10 3.00049C7.24312 3.00049 5 5.1458 5 7.78174C5 9.03705 5.57219 10.7064 6.70062 12.7436C7.60687 14.3792 8.65531 15.8583 9.20062 16.5942C9.29277 16.72 9.41325 16.8222 9.5523 16.8927C9.69134 16.9632 9.84504 17 10.0009 17C10.1568 17 10.3105 16.9632 10.4496 16.8927C10.5886 16.8222 10.7091 16.72 10.8013 16.5942C11.3456 15.8583 12.395 14.3792 13.3013 12.7436C14.4278 10.7071 15 9.03768 15 7.78174C15 5.1458 12.7569 3.00049 10 3.00049ZM10 10.0005C9.60444 10.0005 9.21776 9.88319 8.88886 9.66343C8.55996 9.44366 8.30362 9.13131 8.15224 8.76586C8.00087 8.4004 7.96126 7.99827 8.03843 7.61031C8.1156 7.22235 8.30608 6.86598 8.58579 6.58627C8.86549 6.30657 9.22186 6.11609 9.60982 6.03892C9.99778 5.96175 10.3999 6.00135 10.7654 6.15273C11.1308 6.3041 11.4432 6.56045 11.6629 6.88935C11.8827 7.21825 12 7.60493 12 8.00049C11.9994 8.53074 11.7885 9.03911 11.4136 9.41406C11.0386 9.78901 10.5303 9.99991 10 10.0005Z" fill="#4E4E4E"/>
</svg>
