<svg width="20" height="12" viewBox="0 0 20 12" fill="none" xmlns="http://www.w3.org/2000/svg">
<path fill-rule="evenodd" clip-rule="evenodd" d="M16.1402 1.63719C16.2536 1.53277 16.3697 1.43176 16.4885 1.3341C17.0294 0.889571 17.6222 0.518086 18.267 0.219727C18.7261 0.400234 18.8863 0.893437 18.7276 1.21828C18.2619 1.43375 17.8299 1.6907 17.4317 1.98902C17.0558 1.87535 16.6805 1.76727 16.2978 1.67457C16.2453 1.66184 16.1928 1.64937 16.1402 1.63719ZM16.4741 10.4339C16.1168 10.75 15.8035 11.1775 15.5289 11.78H0.881619C0.814471 11.78 0.756736 11.7492 0.719393 11.6934C0.682088 11.6378 0.675291 11.5727 0.700643 11.5107C0.852596 11.1375 1.00904 10.78 1.16869 10.4339H16.4741ZM16.868 2.37449C16.3833 2.36152 6.92732 -1.26906 1.42951 9.88699H17.3476C17.8359 9.67445 18.3869 9.54641 19.0086 9.40715C19.2019 9.36387 19.331 9.18578 19.312 8.98859C19.0177 5.91738 18.3486 5.27211 16.868 2.37449ZM14.5281 3.8016C16.0448 4.16621 15.016 7.13711 10.4885 7.13711H7.07904C3.91252 7.13715 9.81185 2.66789 14.5281 3.8016ZM9.9631 5.86125H11.5848C11.9167 5.86125 12.1979 6.08957 12.279 6.39695C11.6769 6.53801 11.0505 6.59031 10.4886 6.59031H9.24533V6.57906C9.24529 6.18422 9.5683 5.86125 9.9631 5.86125Z" fill="#ADADAD"/>
</svg>
