<svg width="16" height="15" viewBox="0 0 16 15" fill="none" xmlns="http://www.w3.org/2000/svg">
<path d="M13.228 1.875H5.02344L9.12573 5.9773L13.228 1.875Z" fill="#ADADAD"/>
<path d="M4.625 2.27271V10.4773L8.7273 6.375L4.625 2.27271Z" fill="#ADADAD"/>
<path d="M5.02344 10.875H13.228L9.12573 6.77271L5.02344 10.875Z" fill="#ADADAD"/>
<path d="M13.6257 10.4773V2.27271L9.52344 6.375L13.6257 10.4773Z" fill="#ADADAD"/>
<path d="M14.1875 0.46875H4.0625C3.59723 0.46875 3.21875 0.847228 3.21875 1.3125V11.4375C3.21875 11.9028 3.59723 12.2812 4.0625 12.2812H14.1875C14.6528 12.2812 15.0312 11.9028 15.0312 11.4375V1.3125C15.0312 0.847228 14.6528 0.46875 14.1875 0.46875ZM14.1875 11.1562C14.1875 11.3116 14.0616 11.4375 13.9062 11.4375H4.34375C4.18843 11.4375 4.0625 11.3116 4.0625 11.1562V1.59375C4.0625 1.43843 4.18843 1.3125 4.34375 1.3125H13.9062C14.0616 1.3125 14.1875 1.43843 14.1875 1.59375V11.1562Z" fill="#ADADAD"/>
<path d="M2.375 11.7188H1.25C1.09468 11.7188 0.96875 11.8447 0.96875 12C0.96875 12.1553 1.09468 12.2812 1.25 12.2812H2.375C2.53032 12.2812 2.65625 12.1553 2.65625 12C2.65625 11.8447 2.53032 11.7188 2.375 11.7188Z" fill="#ADADAD"/>
<path d="M2.375 0.46875H1.25C1.09468 0.46875 0.96875 0.59468 0.96875 0.75C0.96875 0.90532 1.09468 1.03125 1.25 1.03125H2.375C2.53032 1.03125 2.65625 0.90532 2.65625 0.75C2.65625 0.59468 2.53032 0.46875 2.375 0.46875Z" fill="#ADADAD"/>
<path d="M13.2614 12.9263C13.1587 12.8236 12.9731 12.8168 12.8636 12.9263C12.7538 13.0361 12.7538 13.2141 12.8636 13.324L12.946 13.4064H5.30396L5.38635 13.324C5.4962 13.2141 5.49622 13.0362 5.3864 12.9263C5.2854 12.8252 5.09691 12.818 4.98865 12.9263L4.42615 13.4888C4.31628 13.5986 4.31628 13.7766 4.42615 13.8865L4.98865 14.449C5.09851 14.5588 5.27649 14.5588 5.38635 14.449C5.49621 14.3391 5.49621 14.1611 5.38635 14.0513L5.30396 13.9689H12.946L12.8636 14.0513C12.7538 14.1611 12.7538 14.3391 12.8636 14.449C12.9735 14.5588 13.1515 14.5588 13.2614 14.449L13.8239 13.8865C13.9337 13.7766 13.9337 13.5986 13.8239 13.4888C13.8239 13.4888 13.2628 12.9277 13.2614 12.9263Z" fill="#ADADAD"/>
<path d="M2.17528 2.63635C2.28514 2.74621 2.46312 2.74621 2.57299 2.63635C2.68285 2.52649 2.68285 2.34851 2.57299 2.23865L2.01049 1.67615C1.90062 1.56628 1.72264 1.56628 1.61278 1.67615C1.61278 1.67615 1.05174 2.23719 1.05028 2.23865C0.947612 2.34132 0.940797 2.52687 1.05028 2.63635C1.16014 2.74621 1.33812 2.74621 1.44799 2.63635L1.53038 2.55395V10.196L1.44799 10.1136C1.33814 10.0038 1.1602 10.0038 1.05033 10.1136C0.949276 10.2146 0.942015 10.4031 1.05028 10.5114L1.61278 11.0739C1.72264 11.1837 1.90062 11.1837 2.01049 11.0739L2.57299 10.5114C2.68285 10.4015 2.68285 10.2235 2.57299 10.1136C2.46312 10.0038 2.28514 10.0038 2.17528 10.1136L2.09288 10.196V2.55395L2.17528 2.63635Z" fill="#ADADAD"/>
<path d="M14.75 12.8438C14.5947 12.8438 14.4688 12.9697 14.4688 13.125V14.25C14.4688 14.4053 14.5947 14.5312 14.75 14.5312C14.9053 14.5312 15.0312 14.4053 15.0312 14.25V13.125C15.0312 12.9697 14.9053 12.8438 14.75 12.8438Z" fill="#ADADAD"/>
<path d="M3.5 12.8438C3.34468 12.8438 3.21875 12.9697 3.21875 13.125V14.25C3.21875 14.4053 3.34468 14.5312 3.5 14.5312C3.65532 14.5312 3.78125 14.4053 3.78125 14.25V13.125C3.78125 12.9697 3.65532 12.8438 3.5 12.8438Z" fill="#ADADAD"/>
</svg>
