<svg width="16" height="18" viewBox="0 0 16 18" fill="none" xmlns="http://www.w3.org/2000/svg">
<path d="M5.66151 1.79199V0.541992H10.3411V1.79199H5.66151ZM7.3763 11.0068H8.6263V6.3272H7.3763V11.0068ZM8.0013 17.417C7.027 17.417 6.11033 17.2311 5.2513 16.8593C4.39227 16.4875 3.64123 15.98 2.99818 15.3368C2.35498 14.6937 1.84748 13.9427 1.47568 13.0837C1.10387 12.2246 0.917969 11.308 0.917969 10.3337C0.917969 9.35935 1.10387 8.44269 1.47568 7.58366C1.84748 6.72463 2.35498 5.97359 2.99818 5.33053C3.64123 4.68734 4.39227 4.17984 5.2513 3.80803C6.11033 3.43623 7.027 3.25033 8.0013 3.25033C8.83575 3.25033 9.63943 3.39192 10.4123 3.67512C11.1853 3.95817 11.903 4.36359 12.5655 4.89137L13.6038 3.85303L14.4819 4.73116L13.4436 5.76949C13.9714 6.43199 14.3768 7.1497 14.6598 7.92262C14.943 8.69553 15.0846 9.49922 15.0846 10.3337C15.0846 11.308 14.8987 12.2246 14.5269 13.0837C14.1551 13.9427 13.6476 14.6937 13.0044 15.3368C12.3614 15.98 11.6103 16.4875 10.7513 16.8593C9.89228 17.2311 8.97561 17.417 8.0013 17.417ZM8.0013 16.167C9.61241 16.167 10.9874 15.5975 12.1263 14.4587C13.2652 13.3198 13.8346 11.9448 13.8346 10.3337C13.8346 8.72255 13.2652 7.34755 12.1263 6.20866C10.9874 5.06977 9.61241 4.50033 8.0013 4.50033C6.39019 4.50033 5.01519 5.06977 3.8763 6.20866C2.73741 7.34755 2.16797 8.72255 2.16797 10.3337C2.16797 11.9448 2.73741 13.3198 3.8763 14.4587C5.01519 15.5975 6.39019 16.167 8.0013 16.167Z" fill="#54627B"/>
</svg>
