<svg width="22" height="22" viewBox="0 0 22 22" fill="none" xmlns="http://www.w3.org/2000/svg">
<path d="M16.0572 3.75115C13.8669 5.94229 11.6766 8.13426 9.48706 10.3254C9.3876 10.4224 9.32424 10.55 9.30259 10.6863L9.08925 12.1925C9.02589 12.6168 9.38919 12.9817 9.81346 12.9215L11.3196 12.7034C11.4576 12.6841 11.5851 12.6208 11.6838 12.5229L18.2531 5.94868C18.8546 5.34716 18.8546 4.35266 18.2531 3.75034C17.654 3.15203 16.6595 3.14723 16.0572 3.75034L16.0572 3.75115Z" fill="#003366"/>
<path d="M5.2946 4.5879C4.20225 4.5879 3.30078 5.48456 3.30078 6.57691V16.7081C3.30078 17.8004 4.20225 18.7019 5.2946 18.7019H15.4258C16.5181 18.7019 17.4148 17.8004 17.4148 16.7081V11.645C17.4156 11.4749 17.3482 11.3113 17.2287 11.1902C17.1092 11.0699 16.9456 11.0017 16.7756 11.0009C16.6055 11.0017 16.4427 11.0699 16.3224 11.1902C16.2021 11.3113 16.1356 11.4749 16.1364 11.645V16.7081C16.1364 17.1123 15.83 17.4187 15.4258 17.4187H5.29462C4.89039 17.4187 4.58403 17.1123 4.58403 16.7081V6.57691C4.58403 6.17268 4.89041 5.87113 5.29462 5.87113H10.3577C10.5286 5.87193 10.693 5.80456 10.8141 5.68346C10.9352 5.56236 11.0026 5.39795 11.0018 5.2271C11.001 5.05707 10.9328 4.89426 10.8125 4.77397C10.6914 4.65447 10.5278 4.58709 10.3578 4.5879L5.2946 4.5879Z" fill="#003366"/>
</svg>
