<svg width="24" height="24" viewBox="0 0 24 24" fill="none" xmlns="http://www.w3.org/2000/svg">
<path d="M11.0411 14.7025C12.0701 14.7025 12.9441 14.3423 13.663 13.6221C14.3819 12.9018 14.7414 12.0272 14.7414 10.9982C14.7414 9.96913 14.3812 9.09517 13.6609 8.37626C12.9407 7.65736 12.066 7.29791 11.037 7.29791C10.008 7.29791 9.13404 7.65804 8.41513 8.37831C7.69623 9.09858 7.33677 9.97322 7.33677 11.0022C7.33677 12.0313 7.69691 12.9052 8.41717 13.6241C9.13744 14.343 10.0121 14.7025 11.0411 14.7025ZM11.0391 13.452C10.358 13.452 9.77909 13.2137 9.30234 12.7369C8.82559 12.2602 8.58721 11.6813 8.58721 11.0002C8.58721 10.3191 8.82559 9.74022 9.30234 9.26347C9.77909 8.78672 10.358 8.54835 11.0391 8.54835C11.7201 8.54835 12.299 8.78672 12.7758 9.26347C13.2525 9.74022 13.4909 10.3191 13.4909 11.0002C13.4909 11.6813 13.2525 12.2602 12.7758 12.7369C12.299 13.2137 11.7201 13.452 11.0391 13.452ZM11.0402 17.3568C8.95204 17.3568 7.04936 16.7808 5.33216 15.6287C3.61496 14.4768 2.35059 12.934 1.53906 11.0002C2.35059 9.06641 3.61451 7.52357 5.3308 6.37165C7.04724 5.21959 8.94962 4.64355 11.0379 4.64355C13.1261 4.64355 15.0288 5.21959 16.746 6.37165C18.4632 7.52357 19.7275 9.06641 20.5391 11.0002C19.7275 12.934 18.4636 14.4768 16.7473 15.6287C15.0309 16.7808 13.1285 17.3568 11.0402 17.3568ZM11.0391 15.9947C12.7493 15.9947 14.3195 15.5444 15.7498 14.6439C17.18 13.7434 18.2735 12.5288 19.0303 11.0002C18.2735 9.47157 17.18 8.257 15.7498 7.35648C14.3195 6.45595 12.7493 6.00569 11.0391 6.00569C9.32882 6.00569 7.75858 6.45595 6.32834 7.35648C4.89809 8.257 3.8046 9.47157 3.04786 11.0002C3.8046 12.5288 4.89809 13.7434 6.32834 14.6439C7.75858 15.5444 9.32882 15.9947 11.0391 15.9947Z" fill="#003366"/>
</svg>
