<svg width="46" height="46" viewBox="0 0 46 46" fill="none" xmlns="http://www.w3.org/2000/svg">
<path d="M22.5577 38.3334V36.4167H35.237C35.5564 36.4167 35.8329 36.3185 36.0664 36.1221C36.2999 35.9253 36.4167 35.6672 36.4167 35.3477V22.1448C36.4167 18.5549 35.0966 15.5564 32.4564 13.1494C29.8158 10.7427 26.6637 9.53933 23 9.53933C19.3363 9.53933 16.1842 10.7427 13.5436 13.1494C10.9034 15.5564 9.58333 18.5549 9.58333 22.1448V33.0257H8.625C7.84108 33.0257 7.16594 32.7609 6.59956 32.2312C6.03319 31.7019 5.75 31.0453 5.75 30.2614V26.6489C5.75 26.0765 5.93608 25.5686 6.30823 25.1252C6.6807 24.6815 7.13351 24.3208 7.66667 24.0432L7.69973 21.6881C7.75883 19.6878 8.21164 17.835 9.05817 16.1298C9.90469 14.4243 11.0191 12.94 12.4013 11.6769C13.7835 10.4138 15.3894 9.42976 17.2189 8.72475C19.0483 8.01942 20.9754 7.66675 23 7.66675C25.0246 7.66675 26.9499 8.01942 28.7759 8.72475C30.6015 9.42976 32.2073 10.4121 33.5934 11.6716C34.9792 12.9309 36.0935 14.4131 36.9366 16.1183C37.7793 17.8238 38.2338 19.6766 38.3003 21.6766L38.3333 23.9843C38.8419 24.2226 39.2885 24.5433 39.6731 24.9465C40.0577 25.3493 40.25 25.8332 40.25 26.3983V30.5489C40.25 31.114 40.0577 31.5981 39.6731 32.0012C39.2885 32.404 38.8419 32.7246 38.3333 32.9629V35.3477C38.3333 36.1808 38.0318 36.8867 37.4287 37.4652C36.8252 38.044 36.0947 38.3334 35.237 38.3334H22.5577ZM17.987 25.9489C17.5915 25.9489 17.247 25.8144 16.9534 25.5454C16.6598 25.2761 16.513 24.9437 16.513 24.5483C16.513 24.1525 16.6598 23.814 16.9534 23.5329C17.247 23.2515 17.5915 23.1108 17.987 23.1108C18.3827 23.1108 18.7274 23.2515 19.021 23.5329C19.3146 23.814 19.4614 24.1525 19.4614 24.5483C19.4614 24.9437 19.3146 25.2761 19.021 25.5454C18.7274 25.8144 18.3827 25.9489 17.987 25.9489ZM28.013 25.9489C27.6172 25.9489 27.2726 25.8144 26.979 25.5454C26.6854 25.2761 26.5386 24.9437 26.5386 24.5483C26.5386 24.1525 26.6854 23.814 26.979 23.5329C27.2726 23.2515 27.6172 23.1108 28.013 23.1108C28.4085 23.1108 28.753 23.2515 29.0466 23.5329C29.3402 23.814 29.487 24.1525 29.487 24.5483C29.487 24.9437 29.3402 25.2761 29.0466 25.5454C28.753 25.8144 28.4085 25.9489 28.013 25.9489ZM12.8747 22.9042C12.7003 20.034 13.6243 17.5879 15.6467 15.5658C17.6691 13.5434 20.1522 12.5322 23.0958 12.5322C25.5702 12.5322 27.7628 13.2749 29.6734 14.7603C31.584 16.2457 32.7506 18.1974 33.1732 20.6153C30.6349 20.5833 28.279 19.9358 26.1055 18.6727C23.932 17.4096 22.264 15.6527 21.1015 13.4019C20.6396 15.6134 19.6783 17.5516 18.2174 19.2166C16.7566 20.8812 14.9757 22.1104 12.8747 22.9042Z" fill="#54627B"/>
</svg>
