<svg width="46" height="46" viewBox="0 0 46 46" fill="none" xmlns="http://www.w3.org/2000/svg">
<path d="M17.5447 28.5654H30.003C30.8042 28.5654 31.4836 28.2866 32.0414 27.7288C32.5991 27.1711 32.878 26.4916 32.878 25.6904C32.878 24.8896 32.5991 24.2103 32.0414 23.6525C31.4836 23.0945 30.8042 22.8154 30.003 22.8154H29.0226C28.9639 21.2601 28.4437 19.913 27.462 18.7741C26.48 17.635 25.236 17.0654 23.7298 17.0654C22.4865 17.0654 21.3697 17.4132 20.3794 18.1086C19.3892 18.804 18.7416 19.7341 18.4369 20.8988H17.4235C16.3642 20.8988 15.4808 21.2711 14.7732 22.0157C14.0653 22.7603 13.7114 23.6658 13.7114 24.7321C13.7114 25.8134 14.08 26.7227 14.8173 27.46C15.5545 28.197 16.4637 28.5654 17.5447 28.5654ZM17.5447 26.6488C17.0016 26.6488 16.5464 26.4651 16.1791 26.0977C15.8117 25.7304 15.628 25.2752 15.628 24.7321C15.628 24.1891 15.8117 23.7338 16.1791 23.3665C16.5464 22.9991 17.0016 22.8154 17.5447 22.8154H20.0512V22.3363C20.0512 21.4099 20.3849 20.6193 21.0522 19.9644C21.7192 19.3095 22.5897 18.9821 23.6636 18.9821C24.7373 18.9821 25.6016 19.4079 26.2564 20.2596C26.9113 21.1109 27.2387 22.0735 27.2387 23.1475V24.7321H30.003C30.2586 24.7321 30.4822 24.8279 30.6739 25.0196C30.8655 25.2113 30.9614 25.4349 30.9614 25.6904C30.9614 25.946 30.8655 26.1696 30.6739 26.3613C30.4822 26.5529 30.2586 26.6488 30.003 26.6488H17.5447ZM8.84637 36.4166C7.96407 36.4166 7.22743 36.1211 6.63646 35.5301C6.04549 34.9392 5.75 34.2025 5.75 33.3202V12.6796C5.75 11.7973 6.04549 11.0607 6.63646 10.4697C7.22743 9.87874 7.96407 9.58325 8.84637 9.58325H37.1536C38.0359 9.58325 38.7726 9.87874 39.3635 10.4697C39.9545 11.0607 40.25 11.7973 40.25 12.6796V33.3202C40.25 34.2025 39.9545 34.9392 39.3635 35.5301C38.7726 36.1211 38.0359 36.4166 37.1536 36.4166H8.84637ZM8.84637 34.4999H37.1536C37.4488 34.4999 37.7192 34.3771 37.9649 34.1314C38.2105 33.8858 38.3333 33.6154 38.3333 33.3202V12.6796C38.3333 12.3845 38.2105 12.1141 37.9649 11.8684C37.7192 11.6227 37.4488 11.4999 37.1536 11.4999H8.84637C8.55121 11.4999 8.2808 11.6227 8.03515 11.8684C7.78949 12.1141 7.66667 12.3845 7.66667 12.6796V33.3202C7.66667 33.6154 7.78949 33.8858 8.03515 34.1314C8.2808 34.3771 8.55121 34.4999 8.84637 34.4999Z" fill="#54627B"/>
</svg>
