<svg width="20" height="20" viewBox="0 0 20 20" fill="none" xmlns="http://www.w3.org/2000/svg">
<path d="M17.1445 18.5715H17.8588C17.9541 18.5772 18.0495 18.5627 18.1388 18.5288C18.2281 18.4949 18.3091 18.4425 18.3766 18.375C18.4441 18.3075 18.4965 18.2264 18.5304 18.1372C18.5643 18.0479 18.5788 17.9525 18.5731 17.8572V11.4286C18.5788 11.3333 18.5643 11.2379 18.5304 11.1487C18.4965 11.0594 18.4441 10.9783 18.3766 10.9108C18.3091 10.8433 18.2281 10.7909 18.1388 10.757C18.0495 10.7232 17.9541 10.7086 17.8588 10.7144H17.1445L17.1445 18.5715Z" fill="#555555"/>
<path d="M2.85557 17.8572L2.85557 10.7144H2.14128C2.04599 10.7086 1.95056 10.7232 1.8613 10.757C1.77205 10.7909 1.69099 10.8433 1.62348 10.9108C1.55598 10.9783 1.50356 11.0594 1.46969 11.1487C1.43582 11.2379 1.42127 11.3333 1.427 11.4286L1.427 17.8572C1.42127 17.9525 1.43582 18.0479 1.46969 18.1372C1.50356 18.2264 1.55598 18.3075 1.62348 18.375C1.69099 18.4425 1.77205 18.4949 1.8613 18.5288C1.95056 18.5627 2.04599 18.5772 2.14128 18.5715H2.85557V17.8572Z" fill="#555555"/>
<path d="M14.9994 1.42847L4.99944 1.42847C4.81 1.42847 4.62832 1.50372 4.49437 1.63768C4.36041 1.77163 4.28516 1.95331 4.28516 2.14275L4.28516 17.857C4.28516 18.0465 4.36041 18.2282 4.49437 18.3621C4.62832 18.4961 4.81 18.5713 4.99944 18.5713H8.57087V16.0713C8.57087 15.9766 8.6085 15.8858 8.67548 15.8188C8.74245 15.7518 8.83329 15.7142 8.92801 15.7142H11.0709C11.1656 15.7142 11.2564 15.7518 11.3234 15.8188C11.3904 15.8858 11.428 15.9766 11.428 16.0713V18.5713L14.9994 18.5713C15.1889 18.5713 15.3706 18.4961 15.5045 18.3621C15.6385 18.2282 15.7137 18.0465 15.7137 17.857L15.7137 2.14275C15.7137 1.95331 15.6385 1.77163 15.5045 1.63768C15.3706 1.50372 15.1889 1.42847 14.9994 1.42847ZM8.21373 13.5713L6.78516 13.5713C6.69044 13.5713 6.5996 13.5337 6.53262 13.4667C6.46564 13.3997 6.42801 13.3089 6.42801 13.2142L6.42801 12.4999C6.42801 12.4052 6.46564 12.3143 6.53262 12.2474C6.5996 12.1804 6.69044 12.1428 6.78516 12.1428L8.21373 12.1428C8.30845 12.1428 8.39929 12.1804 8.46627 12.2474C8.53324 12.3143 8.57087 12.4052 8.57087 12.4999V13.2142C8.57087 13.3089 8.53324 13.3997 8.46627 13.4667C8.39929 13.5337 8.30845 13.5713 8.21373 13.5713ZM8.21373 10.7142L6.78516 10.7142C6.69044 10.7142 6.5996 10.6766 6.53262 10.6096C6.46564 10.5426 6.42801 10.4518 6.42801 10.357V9.64275C6.42801 9.54803 6.46564 9.45719 6.53262 9.39021C6.5996 9.32324 6.69044 9.28561 6.78516 9.28561H8.21373C8.30845 9.28561 8.39929 9.32324 8.46627 9.39021C8.53324 9.45719 8.57087 9.54803 8.57087 9.64275V10.357C8.57087 10.4518 8.53324 10.5426 8.46627 10.6096C8.39929 10.6766 8.30845 10.7142 8.21373 10.7142ZM8.21373 7.85704H6.78516C6.69044 7.85704 6.5996 7.81941 6.53262 7.75243C6.46564 7.68546 6.42801 7.59461 6.42801 7.49989V6.78561C6.42801 6.69089 6.46564 6.60005 6.53262 6.53307C6.5996 6.46609 6.69044 6.42847 6.78516 6.42847H8.21373C8.30845 6.42847 8.39929 6.46609 8.46627 6.53307C8.53324 6.60005 8.57087 6.69089 8.57087 6.78561L8.57087 7.49989C8.57087 7.59461 8.53324 7.68546 8.46627 7.75243C8.39929 7.81941 8.30845 7.85704 8.21373 7.85704ZM8.21373 4.99989L6.78516 4.99989C6.69044 4.99989 6.5996 4.96227 6.53262 4.89529C6.46564 4.82831 6.42801 4.73747 6.42801 4.64275L6.42801 3.92847C6.42801 3.83375 6.46564 3.74291 6.53262 3.67593C6.5996 3.60895 6.69044 3.57132 6.78516 3.57132L8.21373 3.57132C8.30845 3.57132 8.39929 3.60895 8.46627 3.67593C8.53324 3.74291 8.57087 3.83375 8.57087 3.92847V4.64275C8.57087 4.73747 8.53324 4.82831 8.46627 4.89529C8.39929 4.96227 8.30845 4.99989 8.21373 4.99989ZM13.2137 13.5713H11.7852C11.6904 13.5713 11.5996 13.5337 11.5326 13.4667C11.4656 13.3997 11.428 13.3089 11.428 13.2142V12.4999C11.428 12.4052 11.4656 12.3143 11.5326 12.2474C11.5996 12.1804 11.6904 12.1428 11.7852 12.1428H13.2137C13.3084 12.1428 13.3993 12.1804 13.4663 12.2474C13.5332 12.3143 13.5709 12.4052 13.5709 12.4999V13.2142C13.5709 13.3089 13.5332 13.3997 13.4663 13.4667C13.3993 13.5337 13.3084 13.5713 13.2137 13.5713ZM13.2137 10.7142H11.7852C11.6904 10.7142 11.5996 10.6766 11.5326 10.6096C11.4656 10.5426 11.428 10.4518 11.428 10.357V9.64275C11.428 9.54803 11.4656 9.45719 11.5326 9.39021C11.5996 9.32324 11.6904 9.28561 11.7852 9.28561H13.2137C13.3084 9.28561 13.3993 9.32324 13.4663 9.39021C13.5332 9.45719 13.5709 9.54803 13.5709 9.64275V10.357C13.5709 10.4518 13.5332 10.5426 13.4663 10.6096C13.3993 10.6766 13.3084 10.7142 13.2137 10.7142ZM13.2137 7.85704H11.7852C11.6904 7.85704 11.5996 7.81941 11.5326 7.75243C11.4656 7.68546 11.428 7.59461 11.428 7.49989L11.428 6.78561C11.428 6.69089 11.4656 6.60005 11.5326 6.53307C11.5996 6.46609 11.6904 6.42847 11.7852 6.42847H13.2137C13.3084 6.42847 13.3993 6.46609 13.4663 6.53307C13.5332 6.60005 13.5709 6.69089 13.5709 6.78561V7.49989C13.5709 7.59461 13.5332 7.68546 13.4663 7.75243C13.3993 7.81941 13.3084 7.85704 13.2137 7.85704ZM13.2137 4.99989H11.7852C11.6904 4.99989 11.5996 4.96227 11.5326 4.89529C11.4656 4.82831 11.428 4.73747 11.428 4.64275V3.92847C11.428 3.83375 11.4656 3.74291 11.5326 3.67593C11.5996 3.60895 11.6904 3.57132 11.7852 3.57132L13.2137 3.57132C13.3084 3.57132 13.3993 3.60895 13.4663 3.67593C13.5332 3.74291 13.5709 3.83375 13.5709 3.92847V4.64275C13.5709 4.73747 13.5332 4.82831 13.4663 4.89529C13.3993 4.96227 13.3084 4.99989 13.2137 4.99989Z" fill="#555555"/>
</svg>
