<svg width="22" height="22" viewBox="0 0 22 22" fill="none" xmlns="http://www.w3.org/2000/svg">
<path d="M11.5131 19.085C11.3635 19.1924 11.184 19.2502 10.9998 19.2502C10.8156 19.2502 10.6361 19.1924 10.4865 19.085C6.05988 15.9298 1.36197 9.43983 6.11122 4.75017C7.41503 3.46761 9.1709 2.7492 10.9998 2.75C12.8331 2.75 14.5922 3.46958 15.8884 4.74925C20.6376 9.43892 15.9397 15.928 11.5131 19.085Z" stroke="#ADADAD" stroke-width="1.5" stroke-linecap="round" stroke-linejoin="round"/>
<path d="M11.0013 10.9999C11.4875 10.9999 11.9538 10.8068 12.2977 10.4629C12.6415 10.1191 12.8346 9.65282 12.8346 9.16659C12.8346 8.68036 12.6415 8.21404 12.2977 7.87022C11.9538 7.52641 11.4875 7.33325 11.0013 7.33325C10.5151 7.33325 10.0488 7.52641 9.70494 7.87022C9.36112 8.21404 9.16797 8.68036 9.16797 9.16659C9.16797 9.65282 9.36112 10.1191 9.70494 10.4629C10.0488 10.8068 10.5151 10.9999 11.0013 10.9999Z" stroke="#ADADAD" stroke-width="1.5" stroke-linecap="round" stroke-linejoin="round"/>
</svg>
