<svg width="246" height="140" viewBox="0 0 246 140" fill="none" xmlns="http://www.w3.org/2000/svg">
<path d="M1.11861 12L1.11861 1.81818L4.74787 1.81818C5.54001 1.81818 6.19626 1.96236 6.71662 2.25071C7.23698 2.53906 7.62642 2.93347 7.88494 3.43395C8.14347 3.93111 8.27273 4.49124 8.27273 5.11435C8.27273 5.74077 8.14181 6.30421 7.87997 6.80469C7.62145 7.30185 7.23035 7.69626 6.70668 7.98793C6.18632 8.27628 5.53172 8.42045 4.7429 8.42045H2.24716L2.24716 7.1179H4.60369C5.10417 7.1179 5.51018 7.03172 5.82173 6.85938C6.13329 6.68371 6.36198 6.44508 6.50781 6.14347C6.65365 5.84186 6.72656 5.49882 6.72656 5.11435C6.72656 4.72988 6.65365 4.38849 6.50781 4.0902C6.36198 3.7919 6.13163 3.55824 5.81676 3.3892C5.50521 3.22017 5.09422 3.13565 4.58381 3.13565H2.65483L2.65483 12H1.11861ZM9.95437 12L9.95437 4.36364L11.3912 4.36364V5.5767H11.4707C11.6099 5.16572 11.8552 4.84257 12.2065 4.60724C12.5611 4.36861 12.9622 4.24929 13.4096 4.24929C13.5024 4.24929 13.6118 4.2526 13.7377 4.25923C13.867 4.26586 13.9681 4.27415 14.041 4.28409L14.041 5.70597C13.9814 5.68939 13.8753 5.67116 13.7228 5.65128C13.5704 5.62808 13.4179 5.61648 13.2654 5.61648C12.9141 5.61648 12.6009 5.69105 12.3258 5.8402C12.054 5.98603 11.8386 6.18987 11.6795 6.4517C11.5204 6.71023 11.4409 7.00521 11.4409 7.33665V12L9.95437 12ZM15.3274 12L15.3274 4.36364H16.8139L16.8139 12H15.3274ZM16.0781 3.18537C15.8196 3.18537 15.5975 3.09919 15.4119 2.92685C15.2296 2.75118 15.1385 2.54238 15.1385 2.30043C15.1385 2.05516 15.2296 1.84635 15.4119 1.67401C15.5975 1.49834 15.8196 1.41051 16.0781 1.41051C16.3366 1.41051 16.5571 1.49834 16.7393 1.67401C16.925 1.84635 17.0178 2.05516 17.0178 2.30043C17.0178 2.54238 16.925 2.75118 16.7393 2.92685C16.5571 3.09919 16.3366 3.18537 16.0781 3.18537ZM22.0304 12.1541C21.2913 12.1541 20.6549 11.9867 20.1213 11.652C19.591 11.3139 19.1833 10.8482 18.8983 10.255C18.6132 9.66169 18.4707 8.98224 18.4707 8.21662C18.4707 7.44105 18.6165 6.75663 18.9082 6.16335C19.1999 5.56676 19.6109 5.10109 20.1412 4.76633C20.6715 4.43158 21.2962 4.2642 22.0154 4.2642C22.5955 4.2642 23.1125 4.37192 23.5666 4.58736C24.0207 4.79948 24.3869 5.09777 24.6653 5.48224C24.947 5.86671 25.1144 6.31581 25.1674 6.82955H23.7207C23.6412 6.47159 23.4589 6.16335 23.1738 5.90483C22.8921 5.64631 22.5143 5.51705 22.0403 5.51705C21.626 5.51705 21.2631 5.62642 20.9515 5.84517C20.6433 6.06061 20.403 6.36884 20.2306 6.76989C20.0583 7.16761 19.9721 7.63826 19.9721 8.18182C19.9721 8.73864 20.0566 9.21922 20.2257 9.62358C20.3947 10.0279 20.6333 10.3411 20.9416 10.5632C21.2531 10.7853 21.6194 10.8963 22.0403 10.8963C22.322 10.8963 22.5772 10.8449 22.8059 10.7422C23.0379 10.6361 23.2318 10.4853 23.3876 10.2898C23.5467 10.0942 23.6577 9.8589 23.7207 9.58381H25.1674C25.1144 10.0777 24.9537 10.5185 24.6852 10.9063C24.4167 11.294 24.0571 11.599 23.6064 11.821C23.1589 12.0431 22.6336 12.1541 22.0304 12.1541ZM30.0483 12.1541C29.2959 12.1541 28.648 11.9934 28.1044 11.6719C27.5642 11.3471 27.1465 10.8913 26.8516 10.3047C26.5599 9.71473 26.4141 9.02367 26.4141 8.23153C26.4141 7.44934 26.5599 6.75994 26.8516 6.16335C27.1465 5.56676 27.5575 5.10109 28.0845 4.76633C28.6148 4.43158 29.2346 4.2642 29.9439 4.2642C30.3748 4.2642 30.7924 4.33546 31.1967 4.47798C31.6011 4.6205 31.964 4.84422 32.2855 5.14915C32.607 5.45407 32.8606 5.85014 33.0462 6.33736C33.2318 6.82126 33.3246 7.40956 33.3246 8.10227V8.62926H27.2543V7.51563L31.8679 7.51563C31.8679 7.12453 31.7884 6.77817 31.6293 6.47656C31.4702 6.17164 31.2464 5.93134 30.9581 5.75568C30.6731 5.58002 30.3383 5.49219 29.9538 5.49219C29.5362 5.49219 29.1716 5.59493 28.8601 5.80043C28.5518 6.0026 28.3132 6.26776 28.1442 6.59588C27.9785 6.92069 27.8956 7.27367 27.8956 7.65483V8.52486C27.8956 9.03527 27.9851 9.46946 28.1641 9.82741C28.3464 10.1854 28.5999 10.4588 28.9247 10.6477C29.2495 10.8333 29.629 10.9261 30.0632 10.9261C30.3449 10.9261 30.6018 10.8864 30.8338 10.8068C31.0658 10.724 31.2663 10.6013 31.4354 10.4389C31.6044 10.2765 31.7337 10.076 31.8232 9.83736L33.2301 10.0909C33.1174 10.5052 32.9152 10.8681 32.6236 11.1797C32.3352 11.4879 31.9723 11.7282 31.5348 11.9006C31.1006 12.0696 30.6051 12.1541 30.0483 12.1541ZM39.1115 6.90909C39.1115 5.66288 39.2756 4.5161 39.6037 3.46875C39.9318 2.4214 40.4107 1.45526 41.0405 0.570313L42.4027 0.570313C42.1574 0.898438 41.9287 1.30114 41.7166 1.77841C41.5045 2.25568 41.3189 2.77936 41.1598 3.34943C41.0007 3.91619 40.8764 4.5045 40.7869 5.11435C40.6974 5.72088 40.6527 6.31913 40.6527 6.90909C40.6527 7.69792 40.7306 8.49669 40.8864 9.3054C41.0421 10.1141 41.2526 10.8648 41.5178 11.5575C41.7829 12.2502 42.0779 12.8153 42.4027 13.2528H41.0405C40.4107 12.3679 39.9318 11.4018 39.6037 10.3544C39.2756 9.30705 39.1115 8.15862 39.1115 6.90909ZM44.0893 12V1.81818L47.7186 1.81818C48.5107 1.81818 49.167 1.96236 49.6873 2.25071C50.2077 2.53906 50.5971 2.93347 50.8556 3.43395C51.1142 3.93111 51.2434 4.49124 51.2434 5.11435C51.2434 5.74077 51.1125 6.30421 50.8507 6.80469C50.5922 7.30185 50.2011 7.69626 49.6774 7.98793C49.157 8.27628 48.5024 8.42045 47.7136 8.42045H45.2179V7.1179L47.5744 7.1179C48.0749 7.1179 48.4809 7.03172 48.7924 6.85938C49.104 6.68371 49.3327 6.44508 49.4785 6.14347C49.6243 5.84186 49.6973 5.49882 49.6973 5.11435C49.6973 4.72988 49.6243 4.38849 49.4785 4.0902C49.3327 3.7919 49.1023 3.55824 48.7875 3.3892C48.4759 3.22017 48.0649 3.13565 47.5545 3.13565L45.6255 3.13565V12H44.0893ZM56.1206 12.1541C55.3682 12.1541 54.7202 11.9934 54.1767 11.6719C53.6364 11.3471 53.2188 10.8913 52.9238 10.3047C52.6322 9.71473 52.4863 9.02367 52.4863 8.23153C52.4863 7.44934 52.6322 6.75994 52.9238 6.16335C53.2188 5.56676 53.6298 5.10109 54.1568 4.76633C54.6871 4.43158 55.3069 4.2642 56.0162 4.2642C56.447 4.2642 56.8646 4.33546 57.269 4.47798C57.6734 4.6205 58.0363 4.84422 58.3578 5.14915C58.6793 5.45407 58.9328 5.85014 59.1184 6.33736C59.304 6.82126 59.3968 7.40956 59.3968 8.10227V8.62926H53.3265V7.51563L57.9402 7.51563C57.9402 7.12453 57.8606 6.77817 57.7015 6.47656C57.5424 6.17164 57.3187 5.93134 57.0304 5.75568C56.7453 5.58002 56.4106 5.49219 56.0261 5.49219C55.6085 5.49219 55.2439 5.59493 54.9324 5.80043C54.6241 6.0026 54.3855 6.26776 54.2164 6.59588C54.0507 6.92069 53.9679 7.27367 53.9679 7.65483V8.52486C53.9679 9.03527 54.0574 9.46946 54.2363 9.82741C54.4186 10.1854 54.6722 10.4588 54.997 10.6477C55.3218 10.8333 55.7013 10.9261 56.1355 10.9261C56.4172 10.9261 56.6741 10.8864 56.9061 10.8068C57.1381 10.724 57.3386 10.6013 57.5076 10.4389C57.6767 10.2765 57.8059 10.076 57.8954 9.83736L59.3024 10.0909C59.1897 10.5052 58.9875 10.8681 58.6958 11.1797C58.4075 11.4879 58.0446 11.7282 57.6071 11.9006C57.1729 12.0696 56.6774 12.1541 56.1206 12.1541ZM61.0462 12V4.36364H62.483V5.5767L62.5625 5.5767C62.7017 5.16572 62.947 4.84257 63.2983 4.60724C63.6529 4.36861 64.054 4.24929 64.5014 4.24929C64.5942 4.24929 64.7036 4.2526 64.8295 4.25923C64.9588 4.26586 65.0599 4.27415 65.1328 4.28409V5.70597C65.0732 5.68939 64.9671 5.67116 64.8146 5.65128C64.6622 5.62808 64.5097 5.61648 64.3572 5.61648C64.0059 5.61648 63.6927 5.69105 63.4176 5.8402C63.1458 5.98603 62.9304 6.18987 62.7713 6.4517C62.6122 6.71023 62.5327 7.00521 62.5327 7.33665V12L61.0462 12ZM71.6108 7.46591V12H70.1243V4.36364H71.5511V5.60653H71.6456C71.8213 5.20218 72.0964 4.87737 72.4709 4.6321C72.8487 4.38684 73.3243 4.2642 73.8977 4.2642C74.4181 4.2642 74.8738 4.37358 75.2649 4.59233C75.656 4.80777 75.9593 5.12926 76.1747 5.55682C76.3902 5.98437 76.4979 6.51302 76.4979 7.14276V12L75.0114 12V7.32173C75.0114 6.76823 74.8672 6.3357 74.5788 6.02415C74.2905 5.70928 73.8944 5.55185 73.3906 5.55185C73.0459 5.55185 72.7393 5.62642 72.4709 5.77557C72.2057 5.92472 71.9953 6.14347 71.8395 6.43182C71.687 6.71686 71.6108 7.06155 71.6108 7.46591ZM78.4915 12V4.36364H79.978V12H78.4915ZM79.2422 3.18537C78.9837 3.18537 78.7616 3.09919 78.576 2.92685C78.3937 2.75118 78.3026 2.54238 78.3026 2.30043C78.3026 2.05516 78.3937 1.84635 78.576 1.67401C78.7616 1.49834 78.9837 1.41051 79.2422 1.41051C79.5007 1.41051 79.7211 1.49834 79.9034 1.67401C80.089 1.84635 80.1818 2.05516 80.1818 2.30043C80.1818 2.54238 80.089 2.75118 79.9034 2.92685C79.7211 3.09919 79.5007 3.18537 79.2422 3.18537ZM85.1795 15.0227C84.573 15.0227 84.051 14.9432 83.6135 14.7841C83.1793 14.625 82.8246 14.4145 82.5495 14.1527C82.2744 13.8909 82.069 13.6042 81.9331 13.2926L83.2108 12.7656C83.3002 12.9115 83.4196 13.0656 83.5687 13.228C83.7212 13.3937 83.9267 13.5346 84.1852 13.6506C84.447 13.7666 84.7834 13.8246 85.1944 13.8246C85.7579 13.8246 86.2235 13.687 86.5914 13.4119C86.9593 13.1402 87.1433 12.706 87.1433 12.1094V10.608H87.0488C86.9593 10.7704 86.8301 10.951 86.661 11.1499C86.4953 11.3487 86.2666 11.5211 85.975 11.6669C85.6833 11.8127 85.3038 11.8857 84.8365 11.8857C84.2333 11.8857 83.6897 11.7448 83.2058 11.4631C82.7252 11.178 82.344 10.7588 82.0623 10.2053C81.7839 9.64844 81.6447 8.96401 81.6447 8.15199C81.6447 7.33996 81.7823 6.64394 82.0574 6.06392C82.3358 5.4839 82.7169 5.03977 83.2008 4.73153C83.6847 4.41998 84.2333 4.2642 84.8464 4.2642C85.3204 4.2642 85.7032 4.34375 85.9949 4.50284C86.2865 4.65862 86.5136 4.84091 86.676 5.04972C86.8417 5.25852 86.9693 5.44247 87.0588 5.60156H87.1681V4.36364H88.6248V12.169C88.6248 12.8253 88.4724 13.3639 88.1674 13.7848C87.8625 14.2057 87.4499 14.5173 86.9295 14.7195C86.4125 14.9216 85.8291 15.0227 85.1795 15.0227ZM85.1646 10.6527C85.5922 10.6527 85.9534 10.5533 86.2484 10.3544C86.5467 10.1522 86.7721 9.86387 86.9245 9.48935C87.0803 9.11151 87.1582 8.65909 87.1582 8.1321C87.1582 7.61837 87.082 7.16596 86.9295 6.77486C86.777 6.38376 86.5533 6.07884 86.2583 5.86009C85.9634 5.63802 85.5988 5.52699 85.1646 5.52699C84.7172 5.52699 84.3443 5.64299 84.046 5.875C83.7477 6.10369 83.5223 6.41525 83.3699 6.80966C83.2207 7.20407 83.1461 7.64489 83.1461 8.1321C83.1461 8.63258 83.2224 9.07173 83.3748 9.44957C83.5273 9.82741 83.7527 10.1224 84.051 10.3345C84.3526 10.5466 84.7238 10.6527 85.1646 10.6527ZM92.1049 7.46591V12L90.6184 12V1.81818L92.085 1.81818V5.60653H92.1795C92.3585 5.19555 92.6319 4.86908 92.9998 4.62713C93.3677 4.38518 93.8483 4.2642 94.4416 4.2642C94.9653 4.2642 95.4226 4.37192 95.8137 4.58736C96.2082 4.80279 96.5131 5.12429 96.7285 5.55185C96.9473 5.97609 97.0566 6.50639 97.0566 7.14276V12H95.5701V7.32173C95.5701 6.7616 95.426 6.32741 95.1376 6.01918C94.8493 5.70762 94.4482 5.55185 93.9345 5.55185C93.5832 5.55185 93.2683 5.62642 92.9899 5.77557C92.7148 5.92472 92.4977 6.14347 92.3386 6.43182C92.1828 6.71686 92.1049 7.06155 92.1049 7.46591ZM102.605 4.36364V5.55682L98.4338 5.55682V4.36364L102.605 4.36364ZM99.5524 2.53409L101.039 2.53409V9.75781C101.039 10.0462 101.082 10.2633 101.168 10.4091C101.254 10.5516 101.365 10.6494 101.501 10.7024C101.64 10.7521 101.791 10.777 101.954 10.777C102.073 10.777 102.177 10.7687 102.267 10.7521C102.356 10.7356 102.426 10.7223 102.476 10.7124L102.744 11.9403C102.658 11.9735 102.535 12.0066 102.376 12.0398C102.217 12.0762 102.018 12.0961 101.78 12.0994C101.389 12.1061 101.024 12.0365 100.686 11.8906C100.348 11.7448 100.074 11.5194 99.8656 11.2145C99.6568 10.9096 99.5524 10.5268 99.5524 10.0661V2.53409ZM107.108 7.77415C107.108 9.02367 106.944 10.1721 106.616 11.2195C106.288 12.2668 105.809 13.233 105.179 14.1179L103.817 14.1179C104.062 13.7898 104.291 13.3871 104.503 12.9098C104.715 12.4325 104.901 11.9105 105.06 11.3438C105.219 10.7737 105.343 10.1837 105.433 9.57386C105.522 8.96402 105.567 8.36411 105.567 7.77415C105.567 6.98864 105.489 6.19152 105.333 5.38281C105.177 4.5741 104.967 3.82339 104.702 3.13068C104.437 2.43797 104.142 1.87287 103.817 1.43537L105.179 1.43537C105.809 2.32031 106.288 3.28646 106.616 4.33381C106.944 5.38115 107.108 6.52794 107.108 7.77415Z" fill="#212121"/>
<rect x="0.5" y="27.5" width="109" height="43" rx="1.5" fill="white"/>
<rect x="0.5" y="27.5" width="109" height="43" rx="1.5" stroke="#DCDCDC"/>
<path d="M12.0568 36.7727H13.3182L16.2841 44.017H16.3864L19.3523 36.7727H20.6136V45.5H19.625V38.8693H19.5398L16.8125 45.5H15.858L13.1307 38.8693H13.0455L13.0455 45.5H12.0568L12.0568 36.7727ZM22.5962 45.5V38.9545H23.6019V45.5H22.5962ZM23.1076 37.8636C22.9116 37.8636 22.7425 37.7969 22.6005 37.6634C22.4613 37.5298 22.3917 37.3693 22.3917 37.1818C22.3917 36.9943 22.4613 36.8338 22.6005 36.7003C22.7425 36.5668 22.9116 36.5 23.1076 36.5C23.3036 36.5 23.4712 36.5668 23.6104 36.7003C23.7525 36.8338 23.8235 36.9943 23.8235 37.1818C23.8235 37.3693 23.7525 37.5298 23.6104 37.6634C23.4712 37.7969 23.3036 37.8636 23.1076 37.8636ZM26.4496 41.5625V45.5H25.4439V38.9545L26.4155 38.9545V39.9773H26.5007C26.6541 39.6449 26.8871 39.3778 27.1996 39.1761C27.5121 38.9716 27.9155 38.8693 28.4098 38.8693C28.853 38.8693 29.2408 38.9602 29.5732 39.142C29.9055 39.321 30.1641 39.5938 30.3487 39.9602C30.5334 40.3239 30.6257 40.7841 30.6257 41.3409L30.6257 45.5H29.62L29.62 41.4091C29.62 40.8949 29.4865 40.4943 29.2195 40.2074C28.9524 39.9176 28.5859 39.7727 28.12 39.7727C27.799 39.7727 27.5121 39.8423 27.2592 39.9815C27.0092 40.1207 26.8118 40.3239 26.6669 40.5909C26.522 40.858 26.4496 41.1818 26.4496 41.5625Z" fill="#54627B"/>
<path d="M18.2983 53.7642L17.9503 54.9922H11.4325L11.7805 53.7642H18.2983ZM15.1264 61.5L11.5668 57.1797L11.5568 56.2102H13.3217C13.7625 56.2102 14.1354 56.1423 14.4403 56.0064C14.7453 55.8705 14.9773 55.6733 15.1364 55.4148C15.2955 55.1529 15.375 54.8348 15.375 54.4602C15.375 53.9034 15.2093 53.4609 14.8778 53.1328C14.5464 52.8047 14.0277 52.6406 13.3217 52.6406H11.4325L11.7955 51.3182H13.3217C14.1437 51.3182 14.8215 51.4491 15.3551 51.7109C15.8887 51.9728 16.2865 52.3357 16.5483 52.7997C16.8101 53.2637 16.9411 53.799 16.9411 54.4055C16.9411 54.9458 16.8333 55.4347 16.6179 55.8722C16.4025 56.3097 16.0594 56.666 15.5888 56.9411C15.1181 57.2161 14.5 57.3769 13.7344 57.4233L13.6896 57.4332L16.9411 61.4155V61.5H15.1264ZM18.3033 51.3182L17.9503 52.5561L12.7401 52.5263L13.093 51.3182H18.3033ZM26.9402 61.669C26.1547 61.6657 25.4835 61.4586 24.9267 61.0476C24.3699 60.6366 23.944 60.0384 23.649 59.2528C23.354 58.4673 23.2065 57.5211 23.2065 56.4141C23.2065 55.3104 23.354 54.3674 23.649 53.5852C23.9473 52.803 24.3748 52.2064 24.9316 51.7955C25.4918 51.3845 26.1613 51.179 26.9402 51.179C27.719 51.179 28.3869 51.3861 28.9437 51.8004C29.5005 52.2114 29.9264 52.808 30.2214 53.5902C30.5197 54.3691 30.6689 55.3104 30.6689 56.4141C30.6689 57.5244 30.5214 58.4723 30.2264 59.2578C29.9314 60.04 29.5055 60.6383 28.9487 61.0526C28.3919 61.4635 27.7224 61.669 26.9402 61.669ZM26.9402 60.3416C27.6296 60.3416 28.1681 60.0052 28.5559 59.3324C28.947 58.6596 29.1426 57.6868 29.1426 56.4141C29.1426 55.5689 29.0531 54.8546 28.8741 54.2713C28.6984 53.6847 28.4449 53.2405 28.1135 52.9389C27.7853 52.634 27.3942 52.4815 26.9402 52.4815C26.2541 52.4815 25.7155 52.8196 25.3244 53.4957C24.9333 54.1719 24.7361 55.1446 24.7328 56.4141C24.7328 57.2625 24.8206 57.9801 24.9963 58.5668C25.1752 59.1501 25.4288 59.5926 25.7569 59.8942C26.085 60.1925 26.4795 60.3416 26.9402 60.3416Z" fill="#54627B"/>
<rect x="136.5" y="27.5" width="109" height="43" rx="1.5" fill="white"/>
<rect x="136.5" y="27.5" width="109" height="43" rx="1.5" stroke="#DCDCDC"/>
<path d="M148.057 36.7727H149.318L152.284 44.017H152.386L155.352 36.7727H156.614V45.5H155.625V38.8693H155.54L152.812 45.5H151.858L149.131 38.8693H149.045V45.5H148.057V36.7727ZM160.522 45.6534C160.108 45.6534 159.731 45.5753 159.393 45.419C159.055 45.2599 158.787 45.0312 158.588 44.733C158.389 44.4318 158.289 44.0682 158.289 43.642C158.289 43.267 158.363 42.9631 158.511 42.7301C158.659 42.4943 158.856 42.3097 159.103 42.1761C159.35 42.0426 159.623 41.9432 159.922 41.8778C160.223 41.8097 160.525 41.7557 160.829 41.7159C161.227 41.6648 161.549 41.6264 161.797 41.6009C162.047 41.5724 162.228 41.5256 162.342 41.4602C162.458 41.3949 162.517 41.2812 162.517 41.1193V41.0852C162.517 40.6648 162.402 40.3381 162.172 40.1051C161.944 39.8722 161.599 39.7557 161.136 39.7557C160.656 39.7557 160.279 39.8608 160.007 40.071C159.734 40.2812 159.542 40.5057 159.431 40.7443L158.477 40.4034C158.647 40.0057 158.875 39.696 159.159 39.4744C159.446 39.25 159.758 39.0937 160.096 39.0057C160.437 38.9148 160.772 38.8693 161.102 38.8693C161.312 38.8693 161.554 38.8949 161.826 38.946C162.102 38.9943 162.368 39.0952 162.623 39.2486C162.882 39.402 163.096 39.6335 163.267 39.9432C163.437 40.2528 163.522 40.6676 163.522 41.1875V45.5H162.517V44.6136H162.466C162.397 44.7557 162.284 44.9077 162.125 45.0696C161.966 45.2315 161.754 45.3693 161.49 45.483C161.225 45.5966 160.903 45.6534 160.522 45.6534ZM160.676 44.75C161.074 44.75 161.409 44.6719 161.681 44.5156C161.957 44.3594 162.164 44.1577 162.304 43.9105C162.446 43.6634 162.517 43.4034 162.517 43.1307V42.2102C162.474 42.2614 162.38 42.3082 162.235 42.3509C162.093 42.3906 161.929 42.4261 161.741 42.4574C161.556 42.4858 161.376 42.5114 161.2 42.5341C161.027 42.554 160.886 42.571 160.778 42.5852C160.517 42.6193 160.272 42.6747 160.045 42.7514C159.821 42.8253 159.639 42.9375 159.5 43.0881C159.363 43.2358 159.295 43.4375 159.295 43.6932C159.295 44.0426 159.424 44.3068 159.683 44.4858C159.944 44.6619 160.275 44.75 160.676 44.75ZM166.108 38.9545L167.676 41.6307L169.244 38.9545H170.403L168.29 42.2273L170.403 45.5H169.244L167.676 42.9602L166.108 45.5L164.949 45.5L167.028 42.2273L164.949 38.9545H166.108Z" fill="#54627B"/>
<path d="M154.298 53.7642L153.95 54.9922H147.433L147.781 53.7642H154.298ZM151.126 61.5L147.567 57.1797L147.557 56.2102H149.322C149.763 56.2102 150.135 56.1423 150.44 56.0064C150.745 55.8705 150.977 55.6733 151.136 55.4148C151.295 55.1529 151.375 54.8348 151.375 54.4602C151.375 53.9034 151.209 53.4609 150.878 53.1328C150.546 52.8047 150.028 52.6406 149.322 52.6406H147.433L147.795 51.3182H149.322C150.144 51.3182 150.821 51.4491 151.355 51.7109C151.889 51.9728 152.286 52.3357 152.548 52.7997C152.81 53.2637 152.941 53.799 152.941 54.4055C152.941 54.9458 152.833 55.4347 152.618 55.8722C152.402 56.3097 152.059 56.666 151.589 56.9411C151.118 57.2161 150.5 57.3769 149.734 57.4233L149.69 57.4332L152.941 61.4155V61.5H151.126ZM154.303 51.3182L153.95 52.5561L148.74 52.5263L149.093 51.3182H154.303ZM159.395 61.5V60.3864L162.841 56.8168C163.209 56.429 163.512 56.0893 163.751 55.7976C163.992 55.5026 164.173 55.2225 164.292 54.9574C164.412 54.6922 164.471 54.4105 164.471 54.1122C164.471 53.7741 164.392 53.4825 164.233 53.2372C164.074 52.9886 163.857 52.7981 163.581 52.6655C163.306 52.5296 162.997 52.4616 162.652 52.4616C162.287 52.4616 161.969 52.5362 161.697 52.6854C161.425 52.8345 161.217 53.045 161.071 53.3168C160.925 53.5885 160.852 53.9067 160.852 54.2713H159.385C159.385 53.6515 159.528 53.1096 159.813 52.6456C160.098 52.1816 160.489 51.822 160.986 51.5668C161.483 51.3082 162.049 51.179 162.682 51.179C163.321 51.179 163.885 51.3066 164.372 51.5618C164.863 51.8137 165.245 52.1584 165.52 52.5959C165.796 53.0301 165.933 53.5206 165.933 54.0675C165.933 54.4453 165.862 54.8149 165.719 55.1761C165.58 55.5374 165.336 55.9401 164.988 56.3842C164.64 56.825 164.157 57.3603 163.537 57.9901L161.513 60.108V60.1825L166.097 60.1825V61.5L159.395 61.5ZM171.526 61.669C170.741 61.6657 170.069 61.4586 169.513 61.0476C168.956 60.6366 168.53 60.0384 168.235 59.2528C167.94 58.4673 167.792 57.5211 167.792 56.4141C167.792 55.3104 167.94 54.3674 168.235 53.5852C168.533 52.803 168.961 52.2064 169.518 51.7955C170.078 51.3845 170.747 51.179 171.526 51.179C172.305 51.179 172.973 51.3861 173.53 51.8004C174.086 52.2114 174.512 52.808 174.807 53.5902C175.106 54.3691 175.255 55.3104 175.255 56.4141C175.255 57.5244 175.107 58.4723 174.812 59.2578C174.517 60.04 174.091 60.6383 173.535 61.0526C172.978 61.4635 172.308 61.669 171.526 61.669ZM171.526 60.3416C172.215 60.3416 172.754 60.0052 173.142 59.3324C173.533 58.6596 173.729 57.6868 173.729 56.4141C173.729 55.5689 173.639 54.8546 173.46 54.2713C173.284 53.6847 173.031 53.2405 172.699 52.9389C172.371 52.634 171.98 52.4815 171.526 52.4815C170.84 52.4815 170.301 52.8196 169.91 53.4957C169.519 54.1719 169.322 55.1446 169.319 56.4141C169.319 57.2625 169.407 57.9801 169.582 58.5668C169.761 59.1501 170.015 59.5926 170.343 59.8942C170.671 60.1925 171.065 60.3416 171.526 60.3416ZM180.563 61.669C179.778 61.6657 179.107 61.4586 178.55 61.0476C177.993 60.6366 177.567 60.0384 177.272 59.2528C176.977 58.4673 176.83 57.5211 176.83 56.4141C176.83 55.3104 176.977 54.3674 177.272 53.5852C177.57 52.803 177.998 52.2064 178.555 51.7955C179.115 51.3845 179.784 51.179 180.563 51.179C181.342 51.179 182.01 51.3861 182.567 51.8004C183.124 52.2114 183.549 52.808 183.844 53.5902C184.143 54.3691 184.292 55.3104 184.292 56.4141C184.292 57.5244 184.144 58.4723 183.849 59.2578C183.554 60.04 183.129 60.6383 182.572 61.0526C182.015 61.4635 181.345 61.669 180.563 61.669ZM180.563 60.3416C181.253 60.3416 181.791 60.0052 182.179 59.3324C182.57 58.6596 182.766 57.6868 182.766 56.4141C182.766 55.5689 182.676 54.8546 182.497 54.2713C182.321 53.6847 182.068 53.2405 181.737 52.9389C181.408 52.634 181.017 52.4815 180.563 52.4815C179.877 52.4815 179.339 52.8196 178.947 53.4957C178.556 54.1719 178.359 55.1446 178.356 56.4141C178.356 57.2625 178.444 57.9801 178.619 58.5668C178.798 59.1501 179.052 59.5926 179.38 59.8942C179.708 60.1925 180.103 60.3416 180.563 60.3416ZM189.6 61.669C188.815 61.6657 188.144 61.4586 187.587 61.0476C187.03 60.6366 186.604 60.0384 186.309 59.2528C186.014 58.4673 185.867 57.5211 185.867 56.4141C185.867 55.3104 186.014 54.3674 186.309 53.5852C186.607 52.803 187.035 52.2064 187.592 51.7955C188.152 51.3845 188.821 51.179 189.6 51.179C190.379 51.179 191.047 51.3861 191.604 51.8004C192.161 52.2114 192.587 52.808 192.882 53.5902C193.18 54.3691 193.329 55.3104 193.329 56.4141C193.329 57.5244 193.182 58.4723 192.887 59.2578C192.592 60.04 192.166 60.6383 191.609 61.0526C191.052 61.4635 190.383 61.669 189.6 61.669ZM189.6 60.3416C190.29 60.3416 190.828 60.0052 191.216 59.3324C191.607 58.6596 191.803 57.6868 191.803 56.4141C191.803 55.5689 191.713 54.8546 191.534 54.2713C191.359 53.6847 191.105 53.2405 190.774 52.9389C190.445 52.634 190.054 52.4815 189.6 52.4815C188.914 52.4815 188.376 52.8196 187.985 53.4957C187.593 54.1719 187.396 55.1446 187.393 56.4141C187.393 57.2625 187.481 57.9801 187.656 58.5668C187.835 59.1501 188.089 59.5926 188.417 59.8942C188.745 60.1925 189.14 60.3416 189.6 60.3416ZM198.637 61.669C197.852 61.6657 197.181 61.4586 196.624 61.0476C196.067 60.6366 195.641 60.0384 195.346 59.2528C195.051 58.4673 194.904 57.5211 194.904 56.4141C194.904 55.3104 195.051 54.3674 195.346 53.5852C195.645 52.803 196.072 52.2064 196.629 51.7955C197.189 51.3845 197.859 51.179 198.637 51.179C199.416 51.179 200.084 51.3861 200.641 51.8004C201.198 52.2114 201.624 52.808 201.919 53.5902C202.217 54.3691 202.366 55.3104 202.366 56.4141C202.366 57.5244 202.219 58.4723 201.924 59.2578C201.629 60.04 201.203 60.6383 200.646 61.0526C200.089 61.4635 199.42 61.669 198.637 61.669ZM198.637 60.3416C199.327 60.3416 199.865 60.0052 200.253 59.3324C200.644 58.6596 200.84 57.6868 200.84 56.4141C200.84 55.5689 200.75 54.8546 200.571 54.2713C200.396 53.6847 200.142 53.2405 199.811 52.9389C199.483 52.634 199.092 52.4815 198.637 52.4815C197.951 52.4815 197.413 52.8196 197.022 53.4957C196.631 54.1719 196.433 55.1446 196.43 56.4141C196.43 57.2625 196.518 57.9801 196.694 58.5668C196.873 59.1501 197.126 59.5926 197.454 59.8942C197.782 60.1925 198.177 60.3416 198.637 60.3416ZM207.675 61.669C206.889 61.6657 206.218 61.4586 205.661 61.0476C205.104 60.6366 204.678 60.0384 204.383 59.2528C204.088 58.4673 203.941 57.5211 203.941 56.4141C203.941 55.3104 204.088 54.3674 204.383 53.5852C204.682 52.803 205.109 52.2064 205.666 51.7955C206.226 51.3845 206.896 51.179 207.675 51.179C208.453 51.179 209.121 51.3861 209.678 51.8004C210.235 52.2114 210.661 52.808 210.956 53.5902C211.254 54.3691 211.403 55.3104 211.403 56.4141C211.403 57.5244 211.256 58.4723 210.961 59.2578C210.666 60.04 210.24 60.6383 209.683 61.0526C209.126 61.4635 208.457 61.669 207.675 61.669ZM207.675 60.3416C208.364 60.3416 208.903 60.0052 209.29 59.3324C209.681 58.6596 209.877 57.6868 209.877 56.4141C209.877 55.5689 209.787 54.8546 209.608 54.2713C209.433 53.6847 209.179 53.2405 208.848 52.9389C208.52 52.634 208.129 52.4815 207.675 52.4815C206.988 52.4815 206.45 52.8196 206.059 53.4957C205.668 54.1719 205.47 55.1446 205.467 56.4141C205.467 57.2625 205.555 57.9801 205.731 58.5668C205.91 59.1501 206.163 59.5926 206.491 59.8942C206.819 60.1925 207.214 60.3416 207.675 60.3416Z" fill="#54627B"/>
<rect x="6.88672" y="94" width="233.021" height="2" fill="#54627B"/>
<ellipse cx="9.06596" cy="95" rx="9.06596" ry="9" fill="#0560FB"/>
<ellipse cx="234.707" cy="95" rx="9.06596" ry="9" fill="#0560FB"/>
<path d="M6.15341 116.835L5.86364 117.824H0.340909L0.630682 116.835H6.15341ZM3.5625 123.5L0.443182 119.682L0.426136 118.966H1.97727C2.38068 118.966 2.72443 118.909 3.00852 118.795C3.29261 118.679 3.50994 118.506 3.66051 118.276C3.81108 118.043 3.88636 117.75 3.88636 117.398C3.88636 116.878 3.73011 116.47 3.41761 116.175C3.10511 115.876 2.625 115.727 1.97727 115.727H0.340909L0.630682 114.773H1.97727C2.67045 114.773 3.23864 114.888 3.68182 115.118C4.12784 115.345 4.45739 115.658 4.67045 116.055C4.88636 116.45 4.99432 116.898 4.99432 117.398C4.99432 117.849 4.89489 118.266 4.69602 118.646C4.5 119.024 4.18466 119.328 3.75 119.558C3.31818 119.788 2.74716 119.903 2.03693 119.903H2.01136L4.89205 123.432V123.5H3.5625ZM6.15341 114.773L5.86364 115.761L1.51705 115.727L1.80682 114.773H6.15341ZM13.6055 123.619C12.9634 123.619 12.4165 123.445 11.9648 123.095C11.5131 122.743 11.168 122.233 10.9293 121.565C10.6907 120.895 10.5714 120.085 10.5714 119.136C10.5714 118.193 10.6907 117.388 10.9293 116.72C11.1708 116.05 11.5174 115.538 11.9691 115.186C12.4237 114.831 12.9691 114.653 13.6055 114.653C14.2418 114.653 14.7859 114.831 15.2376 115.186C15.6921 115.538 16.0387 116.05 16.2773 116.72C16.5188 117.388 16.6396 118.193 16.6396 119.136C16.6396 120.085 16.5202 120.895 16.2816 121.565C16.043 122.233 15.6978 122.743 15.2461 123.095C14.7944 123.445 14.2475 123.619 13.6055 123.619ZM13.6055 122.682C14.2418 122.682 14.7362 122.375 15.0884 121.761C15.4407 121.148 15.6168 120.273 15.6168 119.136C15.6168 118.381 15.5359 117.737 15.3739 117.206C15.2148 116.675 14.9847 116.27 14.6836 115.991C14.3853 115.713 14.0259 115.574 13.6055 115.574C12.9748 115.574 12.4819 115.885 12.1268 116.507C11.7717 117.126 11.5941 118.003 11.5941 119.136C11.5941 119.892 11.6737 120.534 11.8327 121.062C11.9918 121.591 12.2205 121.993 12.5188 122.268C12.82 122.544 13.1822 122.682 13.6055 122.682Z" fill="#54627B"/>
<path d="M193.153 117.335L192.864 118.324H187.341L187.631 117.335H193.153ZM190.562 124L187.443 120.182L187.426 119.466H188.977C189.381 119.466 189.724 119.409 190.009 119.295C190.293 119.179 190.51 119.006 190.661 118.776C190.811 118.543 190.886 118.25 190.886 117.898C190.886 117.378 190.73 116.97 190.418 116.675C190.105 116.376 189.625 116.227 188.977 116.227H187.341L187.631 115.273H188.977C189.67 115.273 190.239 115.388 190.682 115.618C191.128 115.845 191.457 116.158 191.67 116.555C191.886 116.95 191.994 117.398 191.994 117.898C191.994 118.349 191.895 118.766 191.696 119.146C191.5 119.524 191.185 119.828 190.75 120.058C190.318 120.288 189.747 120.403 189.037 120.403H189.011L191.892 123.932V124H190.562ZM193.153 115.273L192.864 116.261L188.517 116.227L188.807 115.273H193.153ZM197.759 124V123.233L200.64 120.08C200.978 119.71 201.256 119.389 201.475 119.116C201.694 118.841 201.855 118.582 201.961 118.341C202.069 118.097 202.123 117.841 202.123 117.574C202.123 117.267 202.049 117.001 201.901 116.777C201.756 116.553 201.557 116.379 201.304 116.257C201.051 116.135 200.767 116.074 200.452 116.074C200.117 116.074 199.824 116.143 199.574 116.283C199.327 116.419 199.135 116.611 198.999 116.858C198.865 117.105 198.799 117.395 198.799 117.727H197.793C197.793 117.216 197.911 116.767 198.147 116.381C198.382 115.994 198.703 115.693 199.11 115.477C199.519 115.261 199.978 115.153 200.486 115.153C200.998 115.153 201.451 115.261 201.846 115.477C202.24 115.693 202.55 115.984 202.775 116.351C202.999 116.717 203.111 117.125 203.111 117.574C203.111 117.895 203.053 118.209 202.936 118.516C202.823 118.82 202.624 119.159 202.34 119.534C202.059 119.906 201.668 120.361 201.168 120.898L199.208 122.994V123.062H203.265V124H197.759ZM207.871 124.119C207.229 124.119 206.682 123.945 206.23 123.595C205.779 123.243 205.434 122.733 205.195 122.065C204.956 121.395 204.837 120.585 204.837 119.636C204.837 118.693 204.956 117.888 205.195 117.22C205.436 116.55 205.783 116.038 206.235 115.686C206.689 115.331 207.235 115.153 207.871 115.153C208.507 115.153 209.051 115.331 209.503 115.686C209.958 116.038 210.304 116.55 210.543 117.22C210.784 117.888 210.905 118.693 210.905 119.636C210.905 120.585 210.786 121.395 210.547 122.065C210.309 122.733 209.963 123.243 209.512 123.595C209.06 123.945 208.513 124.119 207.871 124.119ZM207.871 123.182C208.507 123.182 209.002 122.875 209.354 122.261C209.706 121.648 209.882 120.773 209.882 119.636C209.882 118.881 209.801 118.237 209.64 117.706C209.48 117.175 209.25 116.77 208.949 116.491C208.651 116.213 208.292 116.074 207.871 116.074C207.24 116.074 206.748 116.385 206.392 117.007C206.037 117.626 205.86 118.503 205.86 119.636C205.86 120.392 205.939 121.034 206.098 121.562C206.257 122.091 206.486 122.493 206.784 122.768C207.086 123.044 207.448 123.182 207.871 123.182ZM215.371 124.119C214.729 124.119 214.182 123.945 213.73 123.595C213.279 123.243 212.934 122.733 212.695 122.065C212.456 121.395 212.337 120.585 212.337 119.636C212.337 118.693 212.456 117.888 212.695 117.22C212.936 116.55 213.283 116.038 213.735 115.686C214.189 115.331 214.735 115.153 215.371 115.153C216.007 115.153 216.551 115.331 217.003 115.686C217.458 116.038 217.804 116.55 218.043 117.22C218.284 117.888 218.405 118.693 218.405 119.636C218.405 120.585 218.286 121.395 218.047 122.065C217.809 122.733 217.463 123.243 217.012 123.595C216.56 123.945 216.013 124.119 215.371 124.119ZM215.371 123.182C216.007 123.182 216.502 122.875 216.854 122.261C217.206 121.648 217.382 120.773 217.382 119.636C217.382 118.881 217.301 118.237 217.14 117.706C216.98 117.175 216.75 116.77 216.449 116.491C216.151 116.213 215.792 116.074 215.371 116.074C214.74 116.074 214.248 116.385 213.892 117.007C213.537 117.626 213.36 118.503 213.36 119.636C213.36 120.392 213.439 121.034 213.598 121.562C213.757 122.091 213.986 122.493 214.284 122.768C214.586 123.044 214.948 123.182 215.371 123.182ZM222.871 124.119C222.229 124.119 221.682 123.945 221.23 123.595C220.779 123.243 220.434 122.733 220.195 122.065C219.956 121.395 219.837 120.585 219.837 119.636C219.837 118.693 219.956 117.888 220.195 117.22C220.436 116.55 220.783 116.038 221.235 115.686C221.689 115.331 222.235 115.153 222.871 115.153C223.507 115.153 224.051 115.331 224.503 115.686C224.958 116.038 225.304 116.55 225.543 117.22C225.784 117.888 225.905 118.693 225.905 119.636C225.905 120.585 225.786 121.395 225.547 122.065C225.309 122.733 224.963 123.243 224.512 123.595C224.06 123.945 223.513 124.119 222.871 124.119ZM222.871 123.182C223.507 123.182 224.002 122.875 224.354 122.261C224.706 121.648 224.882 120.773 224.882 119.636C224.882 118.881 224.801 118.237 224.64 117.706C224.48 117.175 224.25 116.77 223.949 116.491C223.651 116.213 223.292 116.074 222.871 116.074C222.24 116.074 221.748 116.385 221.392 117.007C221.037 117.626 220.86 118.503 220.86 119.636C220.86 120.392 220.939 121.034 221.098 121.563C221.257 122.091 221.486 122.493 221.784 122.768C222.086 123.044 222.448 123.182 222.871 123.182Z" fill="#54627B"/>
<rect x="0.25" y="138.75" width="244.5" height="0.5" rx="0.25" fill="white" stroke="#DCDCDC" stroke-width="0.5"/>
</svg>
