<svg width="22" height="21" viewBox="0 0 22 21" fill="none" xmlns="http://www.w3.org/2000/svg">
<path d="M15.5086 13.2075H14.56L14.2238 12.8834C15.4412 11.4714 16.1102 9.66876 16.1089 7.80446C16.1089 6.26089 15.6512 4.75197 14.7936 3.46854C13.9361 2.1851 12.7172 1.18478 11.2911 0.594083C9.86502 0.00338155 8.2958 -0.151173 6.78189 0.149964C5.26797 0.451101 3.87735 1.1944 2.78588 2.28588C1.6944 3.37735 0.951101 4.76797 0.649964 6.28189C0.348827 7.7958 0.503382 9.36502 1.09408 10.7911C1.68478 12.2172 2.6851 13.4361 3.96854 14.2936C5.25197 15.1512 6.76089 15.6089 8.30446 15.6089C10.2376 15.6089 12.0146 14.9005 13.3834 13.7238L13.7075 14.06V15.0086L19.711 21L21.5 19.211L15.5086 13.2075ZM8.30446 13.2075C5.31475 13.2075 2.90138 10.7942 2.90138 7.80446C2.90138 4.81475 5.31475 2.40138 8.30446 2.40138C11.2942 2.40138 13.7075 4.81475 13.7075 7.80446C13.7075 10.7942 11.2942 13.2075 8.30446 13.2075Z" fill="#4E4E4E"/>
</svg>
