<svg width="20" height="19" viewBox="0 0 20 19" fill="none" xmlns="http://www.w3.org/2000/svg">
<path d="M7.077 11.8463H16.423L13.3193 7.76925L10.9423 10.8077L9.373 8.8655L7.077 11.8463ZM6.05775 15.5C5.55258 15.5 5.125 15.325 4.775 14.975C4.425 14.625 4.25 14.1974 4.25 13.6923V2.30775C4.25 1.80258 4.425 1.375 4.775 1.025C5.125 0.675 5.55258 0.5 6.05775 0.5H17.4423C17.9474 0.5 18.375 0.675 18.725 1.025C19.075 1.375 19.25 1.80258 19.25 2.30775V13.6923C19.25 14.1974 19.075 14.625 18.725 14.975C18.375 15.325 17.9474 15.5 17.4423 15.5H6.05775ZM6.05775 14H17.4423C17.5193 14 17.5898 13.9679 17.6538 13.9038C17.7179 13.8398 17.75 13.7692 17.75 13.6923V2.30775C17.75 2.23075 17.7179 2.16025 17.6538 2.09625C17.5898 2.03208 17.5193 2 17.4423 2H6.05775C5.98075 2 5.91025 2.03208 5.84625 2.09625C5.78208 2.16025 5.75 2.23075 5.75 2.30775V13.6923C5.75 13.7692 5.78208 13.8398 5.84625 13.9038C5.91025 13.9679 5.98075 14 6.05775 14ZM2.55775 19C2.05258 19 1.625 18.825 1.275 18.475C0.925 18.125 0.75 17.6974 0.75 17.1923V4.30775H2.25V17.1923C2.25 17.2693 2.28208 17.3398 2.34625 17.4038C2.41025 17.4679 2.48075 17.5 2.55775 17.5H15.4423V19H2.55775Z" fill="white"/>
</svg>
