<svg width="15" height="17" viewBox="0 0 15 17" fill="none" xmlns="http://www.w3.org/2000/svg">
<path d="M13.6077 0.28125L1.39342 0.28125C1.21345 0.28125 1.04085 0.352742 0.913593 0.479999C0.786336 0.607256 0.714844 0.779853 0.714844 0.959821L0.714844 15.8884C0.714844 16.0684 0.786336 16.241 0.913593 16.3682C1.04085 16.4955 1.21345 16.567 1.39342 16.567L13.6077 16.567C13.7877 16.567 13.9603 16.4955 14.0875 16.3682C14.2148 16.241 14.2863 16.0684 14.2863 15.8884L14.2863 0.959821C14.2863 0.779853 14.2148 0.607256 14.0875 0.479999C13.9603 0.352742 13.7877 0.28125 13.6077 0.28125ZM2.75056 2.99554C2.75056 2.81557 2.82205 2.64297 2.94931 2.51571C3.07656 2.38846 3.24916 2.31696 3.42913 2.31696L6.14341 2.31696C6.32338 2.31696 6.49598 2.38846 6.62324 2.51571C6.75049 2.64297 6.82199 2.81557 6.82199 2.99554C6.82199 3.1755 6.75049 3.3481 6.62324 3.47536C6.49598 3.60261 6.32338 3.67411 6.14341 3.67411L3.42913 3.67411C3.24916 3.67411 3.07656 3.60261 2.94931 3.47536C2.82205 3.3481 2.75056 3.1755 2.75056 2.99554ZM7.50056 14.5312C6.5611 14.5312 5.64273 14.2527 4.8616 13.7307C4.08047 13.2088 3.47165 12.4669 3.11213 11.599C2.75261 10.731 2.65855 9.77598 2.84183 8.85457C3.02511 7.93316 3.4775 7.08679 4.1418 6.42249C4.8061 5.75819 5.65247 5.3058 6.57388 5.12252C7.49529 4.93924 8.45035 5.03331 9.3183 5.39282C10.1863 5.75234 10.9281 6.36116 11.45 7.14229C11.972 7.92342 12.2506 8.84179 12.2506 9.78125C12.2491 11.0406 11.7482 12.2479 10.8577 13.1384C9.96724 14.0289 8.75989 14.5298 7.50056 14.5312ZM11.2327 4.01339C11.0314 4.01339 10.8346 3.9537 10.6672 3.84185C10.4998 3.73001 10.3694 3.57104 10.2923 3.38505C10.2153 3.19906 10.1951 2.99441 10.2344 2.79696C10.2737 2.59952 10.3706 2.41815 10.513 2.2758C10.6553 2.13345 10.8367 2.03651 11.0341 1.99724C11.2316 1.95796 11.4362 1.97812 11.6222 2.05516C11.8082 2.1322 11.9672 2.26266 12.079 2.43004C12.1909 2.59743 12.2506 2.79422 12.2506 2.99554C12.2506 3.26549 12.1433 3.52438 11.9524 3.71527C11.7615 3.90615 11.5027 4.01339 11.2327 4.01339Z" fill="#54627B"/>
</svg>
